# xmcd
#
# Track frame offsets: 
#        150
#        16734
#        32249
#        44183
#        59640
#        73612
#        91260
#        108543
#        126621
#        141084
#        159889
#        174061
#        186508
#        203202
#        231995
#
# Disc length: 3580 seconds
#
# Revision: 1
# Processed by: cddbd v1.5PL3 Copyright (c) Steve Scherf et al.
# Submitted via: ExactAudioCopy v0.90b4
#
DISCID=db0dfa0f
DTITLE=Sherrié Austin - Love In The Real World (Australian Version)
DYEAR=1900
DGENRE=Country
TTITLE0=Never Been Kissed
TTITLE1=Good Love Comin' On
TTITLE2=Little Bird
TTITLE3=That's No Way To Break A Heart
TTITLE4=Sarah
TTITLE5=All The Love A Heart Can Hold
TTITLE6=Dreaming Out Loud
TTITLE7=Heart To Heart
TTITLE8=Love In The Real World
TTITLE9=Heart Hold On
TTITLE10=Tell Me Everything
TTITLE11=Favorite Waste Of Time
TTITLE12=All That Matters
TTITLE13=Wish
TTITLE14=Data
EXTD=
EXTT0=
EXTT1=
EXTT2=
EXTT3=
EXTT4=
EXTT5=
EXTT6=
EXTT7=
EXTT8=
EXTT9=
EXTT10=
EXTT11=
EXTT12=
EXTT13=
EXTT14=
PLAYORDER=
